<?xml version="1.0" encoding="utf-8"?>
<!-- Generator: Adobe Illustrator 23.0.2, SVG Export Plug-In . SVG Version: 6.00 Build 0)  -->
<svg version="1.1" id="Layer_1" xmlns="http://www.w3.org/2000/svg" xmlns:xlink="http://www.w3.org/1999/xlink" x="0px" y="0px"
	 viewBox="0 0 151 77" style="enable-background:new 0 0 151 77;" xml:space="preserve" width="146">
<style type="text/css">
	.st0{fill:#C45E1A;}
	.st1{fill:#04773E;}
	.st2{fill:#FFFFFF;}
	.st3{clip-path:url(#SVGID_2_);}
	.st4{enable-background:new    ;}
</style>
<g id="Group_1654" transform="translate(-1041 -2324)">
	<g id="A3laflogo" transform="translate(993.718 2019.971)">
		<g id="lightbrowen" transform="translate(124.558 304.029)">
			<path id="Path_163" class="st0" d="M38.8,0.2l-8.9,9l4.8,11.1l3.2-0.6L38.8,0.2z"/>
			<path id="Path_165" class="st0" d="M40.6,0.2l8.9,9l-4.8,11.1l-3.2-0.6L40.6,0.2z"/>
			<path id="Path_166" class="st0" d="M28.5,11.1L22,17.5l5.5,5.4c0,0,3.2-1.8,3.6-1.7C28.8,11.6,28.5,11.1,28.5,11.1z"/>
			<path id="Path_167" class="st0" d="M50.8,10.5l6.5,6.4l-5.5,5.4c0,0-3.2-1.8-3.6-1.7C50.5,11,50.8,10.5,50.8,10.5z"/>
			<path id="Path_168" class="st0" d="M20.7,18.3l-6.3,6.6l6.9,2.6c0,0,2.8-2.9,3.2-2.9C21.4,19.3,20.7,18.3,20.7,18.3z"/>
			<path id="Path_169" class="st0" d="M58.8,18.3l6.3,6.6l-6.9,2.6c0,0-2.8-2.9-3.2-2.9C58.2,19.3,58.8,18.3,58.8,18.3z"/>
			<path id="Path_170" class="st0" d="M19.1,30c0.4-0.2-0.9,1.5-0.9,1.5S7,34.9,6,36c1.1-3.6,7.1-9.9,7.1-9.9S18.6,30.2,19.1,30z"/>
			<path id="Path_171" class="st0" d="M60.7,30c-0.4-0.2,0.9,1.5,0.9,1.5s11.2,3.4,12.2,4.6c-1.1-3.6-7.1-9.9-7.1-9.9
				S61.1,30.2,60.7,30z"/>
			<path id="Path_172" class="st0" d="M22,30.3c0,0,18.1-4.6,35.4,0C39.4,12.5,22,30.3,22,30.3z"/>
		</g>
		<g id="lightgreen" transform="translate(124.282 335.396)">
			<path id="Path_174" class="st1" d="M18.6,2.1c0,0-11.4,3-12.6,4.3c0.1,2,0.6,4,1.4,5.8L18.6,2.1z"/>
			<path id="Path_175" class="st1" d="M61.7,2.1c0,0,11.4,3,12.6,4.3c-0.1,2-0.6,4-1.4,5.8L61.7,2.1z"/>
			<path id="Path_176" class="st1" d="M21.4,1.4l-12.6,13c0.9,1,1.9,2,2.9,2.8C23.7,1.6,24.1,1,24.1,1L21.4,1.4z"/>
			<path id="Path_177" class="st1" d="M59.2,1.4l12.6,13c-0.9,1-1.9,2-2.9,2.8C56.9,1.6,56.5,1,56.5,1L59.2,1.4z"/>
			<path id="Path_178" class="st1" d="M29.6,0.2L26,0.7L13.5,19.2c1.3,1.4,2.8,2.8,4.2,4.1C27.7,3.1,29.6,0.2,29.6,0.2z"/>
			<path id="Path_179" class="st1" d="M51,0.2l3.5,0.5L67,19.2c-1.3,1.4-2.8,2.8-4.2,4.1C52.8,3.1,51,0.2,51,0.2z"/>
		</g>
		<path id="Path_180" class="st1" d="M173.2,335.6c-1.3-0.5-9.2-1.5-17.8,0c-4.1,8.4-7.6,17-10.6,25.8l19.7,19.9l19.9-20.3
			C184.3,361,174.5,336.1,173.2,335.6z"/>
		<path id="Path_181" class="st2" d="M162.3,379v-4.4c0,0-0.4-0.7-0.6-0.7c-3.8-2.2-4.8-2.9-4.8-2.9s-1.1-0.4-1-2.2s0.2-4.7,0.2-4.7
			l6.4,3.7c0.1-0.7-0.2-1.3-0.8-1.7c-0.9-0.5-4.8-2.8-4.8-2.8s-1-0.4-1-2.2s0.2-4.8,0.2-4.8l6.2,4c0.3-0.5,0.2-1.2-0.3-1.6
			c-0.1,0-0.2-0.1-0.2-0.1c-1.2-0.7-4.8-3-4.8-3s-0.7-0.4-0.8-2s0-8.5,0-8.5s0.4-0.9,1.1,0c0,1.8,0,4.5,0,4.5l6,3.5
			c0.9,0.6,1.4,1.6,1.2,2.7c-0.1,2.1,0,25.1,0,25.1L162.3,379z"/>
		<path id="Path_182" class="st2" d="M165.2,370.1c0,1.3,0,5,0,5l6.3-3.8c0.8-0.6,1.3-1.5,1.3-2.6v-4.6l-6.6,3.9
			C165.6,368.5,165.2,369.3,165.2,370.1z"/>
		<path id="Path_183" class="st2" d="M165.2,362.6c0,1.3,0,5,0,5l6.3-3.8c0.8-0.6,1.3-1.5,1.3-2.6v-4.6l-6.6,3.9
			C165.6,361,165.2,361.8,165.2,362.6z"/>
		<g id="Group_58" transform="translate(159.16 344.605)">
			<path id="Path_184" class="st2" d="M6,10.5c0,1.3,0,5,0,5l6.3-3.8c0.8-0.6,1.3-1.5,1.3-2.6V4.5L7,8.4C6.4,8.9,6,9.7,6,10.5z"/>
			<path id="Path_185" class="st2" d="M13.6,5.3V0.6c-0.2-0.3-0.6-0.4-0.9-0.2c-0.1,0.1-0.2,0.1-0.2,0.2v5.7h1.2V5.3z"/>
		</g>
		<g>
			<defs>
				<polygon id="SVGID_1_" points="171.4,349.4 164.6,353.1 158.3,349.4 157.2,348.6 157.2,339.1 158.3,336.5 169.1,336.5 
					171.5,338.4 				"/>
			</defs>
			<clipPath id="SVGID_2_">
				<use xlink:href="#SVGID_1_"  style="overflow:visible;"/>
			</clipPath>
			<g id="Mask_Group_2" transform="translate(151.189 336.205)" class="st3">
				<g id="Group_59" transform="translate(0.769 0.987)">
					<path id="Rectangle_151" class="st2" d="M18,2.4L18,2.4c0.4,0,0.8,0.4,0.8,0.8v13.1h-1.6V3.2C17.2,2.7,17.6,2.4,18,2.4z"/>
					<path id="Rectangle_155" class="st2" d="M6.8,2.4L6.8,2.4c0.4,0,0.8,0.4,0.8,0.8v13.1H6V3.2C6,2.7,6.4,2.4,6.8,2.4z"/>
					<path id="Rectangle_152" class="st2" d="M15.4,0.2L15.4,0.2c0.4,0,0.8,0.4,0.8,0.8v15.3h-1.6V1C14.6,0.6,14.9,0.2,15.4,0.2z"/>
					<path id="Rectangle_154" class="st2" d="M9.5,0.2L9.5,0.2c0.4,0,0.8,0.4,0.8,0.8v15.3H8.7V1C8.7,0.6,9,0.2,9.5,0.2z"/>
					<path id="Rectangle_153" class="st2" d="M12.4,1.9L12.4,1.9c0.6,0,1.1,0.5,1.1,1.1v13.4h-2.1V2.9C11.4,2.3,11.8,1.9,12.4,1.9z"
						/>
				</g>
			</g>
		</g>
	</g>
	<g class="st4">
		<path class="st1" d="M1068.8,2357.1v12.9l-20.4,0c-2,0-3.5-0.6-4.6-1.7c-1.1-1.1-1.7-2.7-1.7-4.7c0-1.3,0.2-2.4,0.7-3.4
			c0.5-1,1.2-1.9,2.1-2.7l2.9,2c-0.7,0.7-1.2,1.3-1.5,2c-0.3,0.7-0.5,1.4-0.5,2.1c0,0.9,0.3,1.7,0.8,2.2c0.5,0.5,1.2,0.8,2.2,0.8
			h7.2c-0.7-1.2-1.1-2.4-1.1-3.8c0-1.4,0.4-2.7,1.1-3.8c0.7-1.1,1.7-2,2.9-2.7c1.2-0.7,2.5-1,4-1
			C1064.6,2355.5,1066.6,2356,1068.8,2357.1z M1059.4,2365.3c0.5,0.7,1.3,1.1,2.2,1.3h3.6v-7.4c-0.8-0.3-1.5-0.4-2.3-0.4
			c-1.2,0-2.2,0.4-3.1,1.1s-1.2,1.7-1.2,2.9C1058.6,2363.9,1058.8,2364.7,1059.4,2365.3z M1061.3,2352.5c-0.4-0.4-0.6-0.9-0.6-1.5
			c0-0.6,0.2-1.1,0.6-1.5c0.4-0.4,0.9-0.6,1.4-0.6c0.6,0,1.1,0.2,1.5,0.6c0.4,0.4,0.6,0.9,0.6,1.5c0,0.6-0.2,1.1-0.6,1.5
			s-0.9,0.6-1.5,0.6S1061.7,2352.9,1061.3,2352.5z"/>
		<path class="st1" d="M1091.8,2368.4c0,1.1-0.2,1.7-0.6,1.7h-1.7c-1.6,0-2.9-0.4-3.9-1.3c-0.9,0.9-2.3,1.3-4.2,1.3h-9.9v-3.4h3.5
			v-13.5h3.7v13.5h2.4c1,0,1.6-0.2,2-0.6c0.4-0.4,0.5-1.1,0.5-2v-14.9h3.7v14.9c0,0.7-0.1,1.4-0.2,2.1c0.4,0.3,1,0.4,1.7,0.4h2.5
			C1091.7,2366.7,1091.8,2367.2,1091.8,2368.4z"/>
		<path class="st1" d="M1107.6,2366.7v3.4h-16.3c-0.4,0-0.6-0.6-0.6-1.7c0-1.1,0.2-1.7,0.6-1.7h3.2c-0.7-1.1-1-2.3-1-3.7
			c0-1.4,0.4-2.7,1.1-3.8c0.7-1.1,1.7-2,2.9-2.7c1.2-0.7,2.5-1,4-1c1.8,0,3.8,0.5,5.9,1.5l-1.7,3c-1.7-0.7-3.1-1.1-4.1-1.1
			c-1.3,0-2.3,0.4-3.1,1.1s-1.2,1.7-1.2,2.9c0,0.9,0.3,1.7,0.8,2.4s1.3,1.1,2.2,1.3H1107.6z"/>
		<path class="st1" d="M1115.7,2345.7v2.1h-6.1v-2.1h0.6c-0.1-0.3-0.2-0.7-0.2-1.1c0-0.9,0.3-1.6,0.9-2.1c0.6-0.5,1.4-0.8,2.3-0.8
			c0.4,0,0.8,0,1.2,0.1c0.4,0.1,0.8,0.2,1.1,0.4l-0.9,2c-0.1-0.1-0.4-0.2-0.6-0.2c-0.3-0.1-0.5-0.1-0.7-0.1c-0.4,0-0.7,0.1-0.9,0.3
			c-0.2,0.2-0.3,0.4-0.3,0.6c0,0.2,0.1,0.4,0.3,0.6c0.2,0.2,0.4,0.3,0.6,0.3H1115.7z M1110.8,2349.2h3.6v20.9h-3.6V2349.2z"/>
	</g>
</g>
<g>
</g>
<g>
</g>
<g>
</g>
<g>
</g>
<g>
</g>
<g>
</g>
<g>
</g>
<g>
</g>
<g>
</g>
<g>
</g>
<g>
</g>
<g>
</g>
<g>
</g>
<g>
</g>
<g>
</g>
</svg>
