<svg xmlns="http://www.w3.org/2000/svg" xmlns:xlink="http://www.w3.org/1999/xlink" width="68.224" height="77" viewBox="0 0 68.224 77">
  <defs>
    <clipPath id="clip-path">
      <path id="Path_186" data-name="Path 186" d="M187.972,376.191l-6.788,3.7-6.351-3.722-1.065-.766v-9.5l1.065-2.682H185.7l2.409,1.942Z" transform="translate(-173.768 -363.219)" fill="#fff"/>
    </clipPath>
  </defs>
  <g id="A3laflogo" transform="translate(-124.282 -304.029)">
    <g id="lightbrowen" transform="translate(124.558 304.029)">
      <path id="Path_163" data-name="Path 163" d="M178.326,304.029l-8.936,9.016,4.83,11.109,3.22-.644Z" transform="translate(-145.528 -304.029)" fill="#c45e1a"/>
      <path id="Path_165" data-name="Path 165" d="M169.39,304.029l8.936,9.016-4.83,11.109-3.22-.644Z" transform="translate(-134.825 -304.029)" fill="#c45e1a"/>
      <path id="Path_166" data-name="Path 166" d="M161.18,324.247l-6.488,6.384,5.547,5.442s3.179-1.8,3.56-1.662C161.512,324.741,161.18,324.247,161.18,324.247Z" transform="translate(-138.695 -313.428)" fill="#c45e1a"/>
      <path id="Path_167" data-name="Path 167" d="M157.31,324.247l6.488,6.384-5.547,5.442s-3.179-1.8-3.56-1.662C156.978,324.741,157.31,324.247,157.31,324.247Z" transform="translate(-112.475 -313.963)" fill="#c45e1a"/>
      <path id="Path_168" data-name="Path 168" d="M146.845,337.777l-6.339,6.559,6.891,2.6s2.819-2.895,3.188-2.858C147.5,338.8,146.845,337.777,146.845,337.777Z" transform="translate(-132.101 -319.718)" fill="#c45e1a"/>
      <path id="Path_169" data-name="Path 169" d="M144.243,337.777l6.339,6.559-6.891,2.6s-2.819-2.895-3.188-2.858C143.583,338.8,144.243,337.777,144.243,337.777Z" transform="translate(-91.43 -319.718)" fill="#c45e1a"/>
      <path id="Path_170" data-name="Path 170" d="M137.851,356.268c.428-.188-.858,1.476-.858,1.476s-11.194,3.383-12.194,4.573c1.143-3.62,7.05-9.908,7.05-9.908S137.422,356.458,137.851,356.268Z" transform="translate(-124.799 -326.52)" fill="#c45e1a"/>
      <path id="Path_171" data-name="Path 171" d="M124.886,356.268c-.428-.188.858,1.476.858,1.476s11.194,3.383,12.194,4.573c-1.143-3.62-7.05-9.908-7.05-9.908S125.315,356.458,124.886,356.268Z" transform="translate(-70.216 -326.52)" fill="#c45e1a"/>
      <path id="Path_172" data-name="Path 172" d="M154.647,353.29s18.125-4.588,35.352,0C172.079,335.548,154.647,353.29,154.647,353.29Z" transform="translate(-138.674 -323.264)" fill="#c45e1a"/>
    </g>
    <g id="lightgreen" transform="translate(124.282 335.396)">
      <path id="Path_174" data-name="Path 174" d="M136.853,366.135s-11.394,3.034-12.571,4.335a19.062,19.062,0,0,0,1.362,5.821Z" transform="translate(-124.282 -364.268)" fill="#04773e"/>
      <path id="Path_175" data-name="Path 175" d="M124.282,366.135s11.394,3.034,12.571,4.335a19.061,19.061,0,0,1-1.362,5.821Z" transform="translate(-68.629 -364.268)" fill="#04773e"/>
      <path id="Path_176" data-name="Path 176" d="M142.176,364.422l-12.571,13a21.5,21.5,0,0,0,2.91,2.787c11.951-15.605,12.385-16.161,12.385-16.161Z" transform="translate(-126.757 -363.298)" fill="#04773e"/>
      <path id="Path_177" data-name="Path 177" d="M132.33,364.424l12.571,13a21.506,21.506,0,0,1-2.91,2.787c-11.951-15.605-12.385-16.161-12.385-16.161Z" transform="translate(-79.131 -363.3)" fill="#04773e"/>
      <path id="Path_178" data-name="Path 178" d="M154.381,362.645l-3.525.476-12.528,18.434a58.054,58.054,0,0,0,4.24,4.1C152.523,365.456,154.381,362.645,154.381,362.645Z" transform="translate(-130.812 -362.645)" fill="#04773e"/>
      <path id="Path_179" data-name="Path 179" d="M138.329,362.645l3.525.476,12.528,18.434a58.054,58.054,0,0,1-4.24,4.1C140.186,365.456,138.329,362.645,138.329,362.645Z" transform="translate(-93.353 -362.645)" fill="#04773e"/>
    </g>
    <path id="Path_180" data-name="Path 180" d="M179.731,361.965c-1.339-.476-9.165-1.5-17.834,0a235.433,235.433,0,0,0-10.649,25.77L170.964,407.6l19.863-20.292S181.069,362.441,179.731,361.965Z" transform="translate(-12.535 -26.569)" fill="#04773e"/>
    <path id="Path_181" data-name="Path 181" d="M178.493,413.944v-4.379s-.351-.724-.571-.724c-3.81-2.235-4.836-2.895-4.836-2.895s-1.065-.439-.953-2.162.183-4.69.183-4.69l6.376,3.7a1.918,1.918,0,0,0-.769-1.722c-.877-.513-4.837-2.785-4.837-2.785s-.989-.366-.953-2.2.183-4.8.183-4.8l6.177,3.994a1.135,1.135,0,0,0-.571-1.686c-1.246-.7-4.837-2.968-4.837-2.968s-.733-.439-.769-2.015,0-8.464,0-8.464.438-.916,1.065,0c-.037,1.8,0,4.543,0,4.543l5.973,3.481a2.791,2.791,0,0,1,1.246,2.712c-.073,2.052,0,25.136,0,25.136Z" transform="translate(-22.241 -35.198)" fill="#fff"/>
    <path id="Path_182" data-name="Path 182" d="M189.459,421.792c.028,1.268,0,4.99,0,4.99l6.305-3.769a2.964,2.964,0,0,0,1.3-2.573v-4.65L190.5,419.65A2.986,2.986,0,0,0,189.459,421.792Z" transform="translate(-30.299 -51.954)" fill="#fff"/>
    <path id="Path_183" data-name="Path 183" d="M189.459,421.792c.028,1.268,0,4.99,0,4.99l6.305-3.769a2.964,2.964,0,0,0,1.3-2.573v-4.65L190.5,419.65A2.986,2.986,0,0,0,189.459,421.792Z" transform="translate(-30.299 -59.446)" fill="#fff"/>
    <g id="Group_58" data-name="Group 58" transform="translate(159.16 344.605)">
      <path id="Path_184" data-name="Path 184" d="M189.459,421.792c.028,1.268,0,4.99,0,4.99l6.305-3.769a2.964,2.964,0,0,0,1.3-2.573v-4.65L190.5,419.65A2.986,2.986,0,0,0,189.459,421.792Z" transform="translate(-189.459 -411.543)" fill="#fff"/>
      <path id="Path_185" data-name="Path 185" d="M202.669,384.9v-4.721a.678.678,0,0,0-1.164,0v5.7h1.164Z" transform="translate(-195.058 -379.85)" fill="#fff"/>
    </g>
    <g id="Mask_Group_2" data-name="Mask Group 2" transform="translate(151.189 336.205)" clip-path="url(#clip-path)">
      <g id="Group_59" data-name="Group 59" transform="translate(0.769 0.987)">
        <path id="Rectangle_151" data-name="Rectangle 151" d="M.8,0h0a.8.8,0,0,1,.8.8V13.913H0V.8A.8.8,0,0,1,.8,0Z" transform="translate(11.238 2.14)" fill="#fff"/>
        <path id="Rectangle_155" data-name="Rectangle 155" d="M.8,0h0a.8.8,0,0,1,.8.8V13.913H0V.8A.8.8,0,0,1,.8,0Z" transform="translate(0 2.14)" fill="#fff"/>
        <path id="Rectangle_152" data-name="Rectangle 152" d="M.8,0h0a.8.8,0,0,1,.8.8V16.054H0V.8A.8.8,0,0,1,.8,0Z" transform="translate(8.562 0)" fill="#fff"/>
        <path id="Rectangle_154" data-name="Rectangle 154" d="M.8,0h0a.8.8,0,0,1,.8.8V16.054H0V.8A.8.8,0,0,1,.8,0Z" transform="translate(2.675 0)" fill="#fff"/>
        <path id="Rectangle_153" data-name="Rectangle 153" d="M1.071,0h0A1.071,1.071,0,0,1,2.14,1.071V14.448H0V1.071A1.071,1.071,0,0,1,1.071,0Z" transform="translate(5.351 1.605)" fill="#fff"/>
      </g>
    </g>
  </g>
</svg>
